# AST/ASF file generated using VICON BodyLanguage
# -----------------------------------------------
:version 1.10
:name VICON
:units
  mass 1.0
  length 0.45
  angle deg
:documentation
   .ast/.asf automatically generated from VICON data using
   VICON BodyBuilder and BodyLanguage model FoxedUp or BRILLIANT.MOD
:root
   order TX TY TZ RX RY RZ
   axis XYZ
   position 0 0 0  
   orientation 0 0 0 
:bonedata
  begin
     id 1 
     name lhipjoint
     direction 0.702568 -0.596508 0.388042 
     length 2.56661 
     axis 0 0 0  XYZ
  end
  begin
     id 2 
     name lfemur
     direction 0.34202 -0.939693 0  
     length 6.58374  
     axis 0 0 20  XYZ
    dof rx ry rz
    limits (-160.0 20.0)
           (-70.0 70.0)
           (-60.0 70.0)
  end
  begin
     id 3 
     name ltibia
     direction 0.34202 -0.939693 0   
     length 6.62538   
     axis 0 0 20   XYZ
    dof rx
    limits (-10.0 170.0)
  end
  begin
     id 4 
     name lfoot
     direction 0.10455 -0.287249 0.952133   
     length 2.26699   
     axis -90 7.62852e-016 20   XYZ
    dof rx rz
    limits (-45.0 90.0)
           (-70.0 20.0)
  end
  begin
     id 5 
     name ltoes
     direction 1.53572e-011 -4.22322e-011 1   
     length 1.12949   
     axis -90 7.62852e-016 20   XYZ
    dof rx
    limits (-90.0 20.0)
  end
  begin
     id 6 
     name rhipjoint
     direction -0.728055 -0.574632 0.373811   
     length 2.66432  
     axis 0 0 0  XYZ 
  end
  begin
     id 7 
     name rfemur
     direction -0.34202 -0.939693 0   
     length 6.66732   
     axis 0 0 -20   XYZ
    dof rx ry rz
    limits (-160.0 20.0)
           (-70.0 70.0)
           (-70.0 60.0)
  end
  begin
     id 8 
     name rtibia
     direction -0.34202 -0.939693 0   
     length 6.59288   
     axis 0 0 -20   XYZ
    dof rx
    limits (-10.0 170.0)
 end
 begin
     id 9 
     name rfoot
     direction -0.119193 -0.327479 0.93731   
     length 2.38061  
     axis -90 -7.62852e-016 -20   XYZ
    dof rx rz
    limits (-45.0 90.0)
           (-20.0 70.0)
  end
  begin
     id 10 
     name rtoes
     direction -1.53547e-011 -4.21827e-011 1   
     length 1.17899   
     axis -90 -7.62852e-016 -20   XYZ
    dof rx
    limits (-90.0 20.0)
  end
  begin
     id 11 
     name lowerback
     direction -0.000416114 0.999912 -0.0132284   
     length 2.12109   
     axis 0 0 0   XYZ
    dof rx ry rz
    limits (-20.0 45.0)
           (-30.0 30.0)
           (-30.0 30.0)
  end
  begin
     id 12 
     name upperback
     direction -0.00136371 0.99809 0.0617608   
     length 2.10067   
     axis 0 0 0   XYZ
    dof rx ry rz
    limits (-20.0 45.0)
           (-30.0 30.0)
           (-30.0 30.0)
  end
  begin
     id 13 
     name thorax
     direction -3.43026e-005 0.997776 0.0666515   
     length 2.10618   
     axis 0 0 0   XYZ
    dof rx ry rz
    limits (-20.0 45.0)
           (-30.0 30.0)
           (-30.0 30.0)
  end
  begin
     id 14 
     name lowerneck
     direction 0.0398646 0.998418 0.0396592   
     length 1.83817   
     axis 0 0 0   XYZ
    dof rx ry rz
    limits (-20.0 45.0)
           (-30.0 30.0)
           (-30.0 30.0)
  end
  begin
     id 15 
     name upperneck
     direction -0.0367268 0.961527 -0.272244   
     length 1.81975   
     axis 0 0 0   XYZ
    dof rx ry rz
    limits (-20.0 45.0)
           (-30.0 30.0)
           (-30.0 30.0)
  end
  begin
     id 16
     name head
     direction -0.0182665 0.99536 -0.0944669  
     length 1.86026  
     axis 0 0 0   XYZ
    dof rx ry rz
    limits (-20.0 45.0)
           (-30.0 30.0)
           (-30.0 30.0)
  end
  begin
     id 17 
     name lclavicle
     direction 0.924239 0.361045 0.124212  
     length 3.26878  
     axis 0 0 0   XYZ
    dof ry rz
    limits (-20.0 10.0)
           (0.0 20.0)
  end
  begin
     id 18 
     name lhumerus
     direction 1 -4.48968e-011 -2.56583e-027   
     length 4.58538   
     axis 180 -30 -90   XYZ
    dof rx ry rz
    limits (-60.0 90.0)
           (-90.0 90.0)
           (-90.0 90.0)
  end
  begin
     id 19
     name lradius
     direction 1 -4.4898e-011 -5.50375e-027   
     length 2.68935   
     axis 180 -30 -90   XYZ
    dof rx
    limits (-10.0 170.0)
  end
  begin
     id 20
     name lwrist
     direction 1 -4.48939e-011 -1.48955e-026   
     length 1.34468   
     axis 9.0955e-015 90 90   XYZ
    dof ry
    limits (-180.0 0.0)
 end
  begin
     id 21 
     name lhand
     direction 1 -4.48936e-011 -2.97907e-026   
     length 0.585058   
     axis 1.90115e-014 90 90   XYZ
    dof rx rz
    limits (-90.0 90.0)
           (-45.0 45.0)
  end
  begin
     id 22 
     name lfingers
     direction 1 -4.49082e-011 -5.96235e-026   
     length 0.471689   
     axis 3.80223e-014 90 90   XYZ
    dof rx
    limits (0.0 90.0)
  end
  begin
     id 23
     name lthumb
     direction 0.707107 -6.3489e-011 0.707107   
     length 0.677253   
     axis -90 45 -3.84942e-014   XYZ
    dof rx rz
    limits (-45.0 45.0)
           (-45.0 45.0)
  end
  begin
     id 24 
     name rclavicle
     direction -0.923098 0.371783 0.0983239   
     length 3.19656  
     axis 0 0 0   XYZ 
    dof ry rz
    limits (-10.0 20.0)
           (-20.0 0.0)
  end
  begin
     id 25 
     name rhumerus
     direction -1 -4.48976e-011 -2.5492e-027  
     length 4.4745   
     axis 180 30 90   XYZ
    dof rx ry rz
    limits (-90.0 60.0)
           (-90.0 90.0)
           (-90.0 90.0)
  end
  begin
     id 26 
     name rradius
     direction -1 -4.48941e-011 -4.36555e-027   
     length 2.93896   
     axis 180 30 90   XYZ
    dof rx
    limits (-10.0 170.0)
  end
  begin
     id 27 
     name rwrist
     direction -1 -4.49044e-011 -1.49032e-026   
     length 1.46948   
     axis 9.0955e-015 -90 -90   XYZ
    dof ry
    limits (-180.0 0.0)
  end
  begin
     id 28
     name rhand
     direction -1 -4.48826e-011 -2.97749e-026   
     length 0.405092   
     axis 1.90115e-014 -90 -90   XYZ
    dof rx rz
    limits (-90.0 90.0)
           (-45.0 45.0)
  end
  begin
     id 29
     name rfingers
     direction -1 -4.49209e-011 -5.96602e-026   
     length 0.326596   
     axis 3.80223e-014 -90 -90   XYZ
    dof rx
    limits (0.0 90.0)
  end
  begin
     id 30
     name rthumb
     direction -0.707107 -6.34776e-011 0.707107   
     length 0.468928   
     axis -90 -45 3.84942e-014   XYZ
    dof rx rz
    limits (-45.0 45.0)
           (-45.0 45.0)
  end
:hierarchy
  begin
    root lhipjoint rhipjoint lowerback
    lhipjoint lfemur
    lfemur ltibia
    ltibia lfoot
    lfoot ltoes
    rhipjoint rfemur
    rfemur rtibia
    rtibia rfoot
    rfoot rtoes
    lowerback upperback
    upperback thorax
    thorax lowerneck lclavicle rclavicle
    lowerneck upperneck
    upperneck head
    lclavicle lhumerus
    lhumerus lradius
    lradius lwrist
    lwrist lhand lthumb
    lhand lfingers
    rclavicle rhumerus
    rhumerus rradius
    rradius rwrist
    rwrist rhand rthumb
    rhand rfingers
  end

#!OML:ASF H:\Punching\Project 1\Capture day 1\Session 1\female.ASF
:FULLY-SPECIFIED
:DEGREES
71
root 3.13236 15.9374 5.89117 14.338 -3.13177 1.10025
lowerback 1.93677 -1.90168 -5.95009
upperback -3.73033 -2.80356 0.156594
thorax -4.67092 -1.17421 3.65491
lowerneck -10.4864 4.23935 10.7265
upperneck 27.5742 5.40128 -6.31734
head 11.1106 2.82137 -3.45941
rclavicle 8.19987e-015 7.55382e-015
rhumerus -44.5051 -11.373 -64.4199
rradius 23.984
rwrist 12.8711
rhand -6.94505 -12.8648
rfingers 7.12502
rthumb 18.9237 -41.9643
lclavicle 8.19987e-015 7.55382e-015
lhumerus -50.1955 11.7348 66.5857
lradius 32.1315
lwrist -16.1783
lhand -6.24573 16.8614
lfingers 7.12502
lthumb 19.5961 45.8937
rfemur -27.5018 -1.86724 8.48625
rtibia 41.0231
rfoot -11.5996 -20.0771
rtoes 7.09472
lfemur -20.4082 -8.46672 -25.5588
ltibia 15.0873
lfoot -7.05929 15.3002
ltoes 10.5872
72
root 3.1287 15.9435 5.87285 14.5166 -3.27033 1.00254
lowerback 1.92164 -1.83785 -5.95615
upperback -3.75974 -2.71909 0.144732
thorax -4.70251 -1.13055 3.64196
lowerneck -10.4624 4.22022 10.7152
upperneck 27.3887 5.38026 -6.34502
head 11.0332 2.80598 -3.46709
rclavicle 5.13361e-014 8.34896e-015
rhumerus -43.4808 -11.4901 -64.9657
rradius 23.8432
rwrist 13.0903
rhand -7.43179 -12.2803
rfingers 7.12502
rthumb 18.4555 -41.4248
lclavicle 5.13361e-014 8.34896e-015
lhumerus -49.0758 12.0835 66.9712
lradius 32.129
lwrist -16.3657
lhand -6.22526 16.8175
lfingers 7.12502
lthumb 19.6158 45.8479
rfemur -26.9926 -1.91421 8.44677
rtibia 40.8096
rfoot -11.5211 -20.167
rtoes 7.2201
lfemur -20.6597 -8.4725 -25.3817
ltibia 15.0534
lfoot -6.9659 15.4064
ltoes 10.6036
73
root 3.12457 15.9494 5.85443 14.6833 -3.4339 0.916891
lowerback 1.90258 -1.76855 -5.96967
upperback -3.79389 -2.62786 0.125005
thorax -4.73766 -1.08319 3.62456
lowerneck -10.4146 4.19582 10.7034
upperneck 27.1898 5.35354 -6.37183
head 10.9456 2.78834 -3.47512
rclavicle 9.98893e-015 9.93923e-015
rhumerus -42.4298 -11.6061 -65.5385
rradius 23.7168
rwrist 13.2823
rhand -7.84882 -11.8023
rfingers 7.12502
rthumb 18.0543 -40.9843
lclavicle 9.98893e-015 9.93923e-015
lhumerus -47.9495 12.4102 67.3856
lradius 32.1552
lwrist -16.5596
lhand -6.18308 16.7884
lfingers 7.12502
lthumb 19.6564 45.8146
rfemur -26.4674 -1.96538 8.38723
rtibia 40.5974
rfoot -11.4209 -20.2113
rtoes 7.28361
lfemur -20.8866 -8.47045 -25.2177
ltibia 15.0015
lfoot -6.86866 15.5213
ltoes 10.6256
74
root 3.11997 15.9553 5.83562 14.8408 -3.61876 0.838712
lowerback 1.88041 -1.69598 -5.98555
upperback -3.83264 -2.53259 0.0989458
thorax -4.77649 -1.03365 3.60162
lowerneck -10.3456 4.16881 10.6941
upperneck 26.9781 5.32438 -6.39931
head 10.8492 2.77002 -3.48416
rclavicle 1.48095e-014 1.19271e-014
rhumerus -41.3492 -11.7244 -66.1386
rradius 23.6225
rwrist 13.4241
rhand -8.13281 -11.4998
rfingers 7.12502
rthumb 17.781 -40.7069
lclavicle 1.48095e-014 1.19271e-014
lhumerus -46.8201 12.7235 67.8167
lradius 32.2215
lwrist -16.7719
lhand -6.1039 16.7605
lfingers 7.12502
lthumb 19.7325 45.7789
rfemur -25.9317 -2.0165 8.31196
rtibia 40.3847
rfoot -11.2935 -20.2175
rtoes 7.26762
lfemur -21.0938 -8.46289 -25.0601
ltibia 14.9306
lfoot -6.76577 15.645
ltoes 10.6496
75
root 3.11499 15.961 5.81648 14.986 -3.82581 0.76761
lowerback 1.85504 -1.62083 -6.00151
upperback -3.87092 -2.43394 0.0660206
thorax -4.81362 -0.982645 3.57121
lowerneck -10.2602 4.14255 10.6895
upperneck 26.7512 5.29694 -6.42896
head 10.7447 2.75286 -3.49442
rclavicle -1.93815e-015 1.94809e-014
rhumerus -40.2365 -11.8265 -66.7791
rradius 23.5798
rwrist 13.4821
rhand -8.27349 -11.3885
rfingers 7.12502
rthumb 17.6457 -40.6078
lclavicle -1.93815e-015 1.94809e-014
lhumerus -45.6953 13.0313 68.2562
lradius 32.3528
lwrist -17.0093
lhand -5.95299 16.7417
lfingers 7.12502
lthumb 19.8775 45.7452
rfemur -25.3847 -2.06344 8.21962
rtibia 40.1701
rfoot -11.1284 -20.1921
rtoes 7.18809
lfemur -21.2768 -8.45437 -24.9085
ltibia 14.8412
lfoot -6.65909 15.7837
ltoes 10.6856
